<svg width="100%"  viewBox="0 0 32 32" fill="none" xmlns="http://www.w3.org/2000/svg">
<path d="M13.9174 2.14691C14.8349 0.617698 17.1651 0.617695 18.0826 2.14691L21.5659 7.9524C21.907 8.52087 22.4912 8.92224 23.1683 9.05331L30.0837 10.3919C31.9052 10.7445 32.6253 12.8401 31.3708 14.1378L26.6083 19.0644C26.1419 19.5468 25.9188 20.1963 25.9962 20.8457L26.7868 27.4785C26.9951 29.2257 25.1099 30.5208 23.417 29.7937L16.9904 27.033C16.3611 26.7626 15.6389 26.7626 15.0096 27.033L8.58296 29.7937C6.89011 30.5208 5.00491 29.2257 5.21318 27.4785L6.00382 20.8457C6.08124 20.1963 5.85809 19.5468 5.39175 19.0644L0.629192 14.1378C-0.625305 12.8401 0.0947756 10.7445 1.91633 10.3919L8.83166 9.05331C9.50881 8.92224 10.093 8.52087 10.4341 7.9524L13.9174 2.14691Z" fill="url(#paint0_linear_262_1771)"/>
<defs>
<linearGradient id="paint0_linear_262_1771" x1="32" y1="1" x2="6.34304" y2="34.813" gradientUnits="userSpaceOnUse">
<stop stop-color="#A1C145"/>
<stop offset="1" stop-color="#006D69"/>
</linearGradient>
</defs>
</svg>
