<svg width="128" height="128" viewBox="0 0 128 128" fill="none" xmlns="http://www.w3.org/2000/svg">
<path d="M64.4891 127.331L6.1875 99.2168V22.1943L23.6593 34.6155L64.4891 108.257V127.331Z" fill="#849E2A"/>
<path d="M23.6593 34.6155H105.319L122.791 22.1944L64.4891 0L6.1875 22.1944L23.6593 34.6155Z" fill="#CEE098"/>
<path d="M64.4902 108.257V76.0695L105.32 34.6155L122.792 22.1943V99.1493L64.4902 127.331V108.257Z" fill="#E6F0D1"/>
<path d="M6.37688 21.9297L6 22.4503L23.4716 34.8779L23.8485 34.3571L6.37688 21.9297Z" fill="white"/>
<path d="M122.609 21.9417L105.135 34.3662L105.512 34.887L122.985 22.4625L122.609 21.9417Z" fill="white"/>
<path d="M64.4901 73.0256L23.6602 88.5667V34.6156L64.4901 19.0745V73.0256Z" fill="#AECC53"/>
<path d="M64.4902 73.0256L105.32 88.5667V34.6156L64.4902 19.0745V73.0256Z" fill="#849E2A"/>
<path d="M23.6602 88.5162L64.49 72.3511L105.32 88.5162L64.49 108.257L23.6602 88.5162Z" fill="#CEE098"/>
<path d="M64.4996 92.8247C73.6228 92.8247 81.0187 91.4354 81.0187 89.7217C81.0187 88.0077 73.6228 86.6184 64.4996 86.6184C55.3764 86.6184 47.9805 88.0077 47.9805 89.7217C47.9805 91.4354 55.3764 92.8247 64.4996 92.8247Z" fill="#99B439"/>
<path d="M64.5008 30.5508L73.2451 47.964L92.3843 48.2929L92.818 50.7551L78.655 64.3061L81.9982 80.8845V83.4395L64.5008 74.4082L46.9949 83.4395L47.2928 80.3195L50.3378 64.3061L36.1836 50.7551L36.6088 48.2929L55.7478 47.964L64.5008 30.5508Z" fill="#003834"/>
<path d="M64.4972 28.4006L73.1142 45.5439L92.3807 48.2929L78.439 61.6416L81.7309 80.4882L64.4972 71.5918L47.2551 80.4882L50.547 61.6416L36.6055 48.2929L55.8805 45.5439L64.4972 28.4006Z" fill="#006D68"/>
<path d="M81.9952 80.8843L78.4398 61.6413L92.3813 48.2927L64.498 56.7252L81.9952 80.8843Z" fill="#34918E"/>
<path d="M78.4371 61.9622C78.352 61.9622 78.2671 61.9285 78.2076 61.861C78.0798 61.7346 78.0883 61.5321 78.2076 61.4057L91.6814 48.5124L73.0612 45.8561C72.9592 45.8392 72.8655 45.7801 72.8145 45.679L64.3339 28.8056C64.2573 28.6453 64.3168 28.4513 64.4784 28.3756C64.6401 28.2997 64.8357 28.3587 64.9123 28.5188L73.3163 45.2406L92.4213 47.9642C92.5404 47.9811 92.6426 48.0655 92.685 48.1835C92.7192 48.3016 92.685 48.428 92.5999 48.5124L78.6584 61.861C78.5987 61.9201 78.5137 61.9539 78.4371 61.9539V61.9622Z" fill="white"/>
<path d="M105.32 34.9359C105.32 34.9359 105.244 34.9359 105.201 34.9107L64.3713 19.3695C64.201 19.3021 64.1244 19.125 64.1842 18.9563C64.252 18.7877 64.4393 18.7118 64.6009 18.7708L105.431 34.3119C105.601 34.3794 105.677 34.5564 105.618 34.7252C105.567 34.8517 105.448 34.9274 105.32 34.9274V34.9359Z" fill="white"/>
<path d="M64.4873 127.652C64.3087 127.652 64.1641 127.508 64.1641 127.331V108.257C64.1641 108.08 64.3087 107.936 64.4873 107.936C64.6659 107.936 64.8105 108.08 64.8105 108.257V127.331C64.8105 127.508 64.6659 127.652 64.4873 127.652Z" fill="white"/>
</svg>
