<svg width="176" height="64" viewBox="0 0 176 64" fill="none" xmlns="http://www.w3.org/2000/svg">
<g clip-path="url(#clip0_340_2069)">
<path d="M28.7882 63.221L0.0917969 49.2621V11.0198L8.69151 17.187L28.7882 53.7504V63.221Z" fill="#849E2A"/>
<path d="M8.69151 17.1869H48.8849L57.4846 11.0197L28.7882 0L0.0917969 11.0197L8.69151 17.1869Z" fill="#CEE098"/>
<path d="M28.7891 53.7504V37.7693L48.8858 17.187L57.4855 11.0198V49.2286L28.7891 63.221V53.7504Z" fill="#E6F0D1"/>
<path d="M0.185502 10.8882L0 11.1467L8.59962 17.3171L8.78512 17.0585L0.185502 10.8882Z" fill="white"/>
<path d="M57.3976 10.894L48.7969 17.0629L48.9824 17.3215L57.583 11.1526L57.3976 10.894Z" fill="white"/>
<path d="M28.7881 36.2579L8.69141 43.9742V17.187L28.7881 9.4707V36.2579Z" fill="#AECC53"/>
<path d="M28.7891 36.2579L48.8858 43.9742V17.187L28.7891 9.4707V36.2579Z" fill="#849E2A"/>
<path d="M8.69141 43.949L28.7881 35.9229L48.8848 43.949L28.7881 53.7503L8.69141 43.949Z" fill="#CEE098"/>
<path d="M28.7949 46.0883C33.2854 46.0883 36.9257 45.3985 36.9257 44.5476C36.9257 43.6966 33.2854 43.0068 28.7949 43.0068C24.3044 43.0068 20.6641 43.6966 20.6641 44.5476C20.6641 45.3985 24.3044 46.0883 28.7949 46.0883Z" fill="#99B439"/>
<path d="M28.7934 15.1687L33.0974 23.8145L42.5178 23.9778L42.7313 25.2003L35.7602 31.9285L37.4057 40.1598V41.4284L28.7934 36.9443L20.1769 41.4284L20.3235 39.8793L21.8223 31.9285L14.8555 25.2003L15.0648 23.9778L24.4851 23.8145L28.7934 15.1687Z" fill="#003834"/>
<path d="M28.793 14.1011L33.0343 22.6129L42.5174 23.9778L35.6552 30.6055L37.2755 39.963L28.793 35.5459L20.3063 39.963L21.9266 30.6055L15.0645 23.9778L24.5518 22.6129L28.793 14.1011Z" fill="#006D68"/>
<path d="M37.4052 40.1598L35.6552 30.6055L42.5173 23.9778L28.793 28.1646L37.4052 40.1598Z" fill="#34918E"/>
<path d="M35.6553 30.7646C35.6134 30.7646 35.5716 30.7479 35.5423 30.7144C35.4794 30.6516 35.4836 30.5511 35.5423 30.4883L42.1742 24.0867L33.0092 22.7678C32.959 22.7594 32.9129 22.7301 32.8878 22.6799L28.7136 14.3021C28.6759 14.2225 28.7052 14.1262 28.7847 14.0886C28.8643 14.0509 28.9606 14.0802 28.9983 14.1597L33.1348 22.4622L42.5384 23.8145C42.597 23.8229 42.6473 23.8648 42.6682 23.9234C42.685 23.982 42.6682 24.0448 42.6263 24.0867L35.7642 30.7144C35.7348 30.7437 35.693 30.7605 35.6553 30.7605V30.7646Z" fill="white"/>
<path d="M48.8862 17.346C48.8862 17.346 48.8485 17.346 48.8276 17.3335L28.7309 9.61717C28.6471 9.58368 28.6094 9.49575 28.6388 9.41202C28.6722 9.32828 28.7644 9.2906 28.8439 9.31991L48.9406 17.0362C49.0244 17.0697 49.062 17.1576 49.0327 17.2414C49.0076 17.3042 48.949 17.3418 48.8862 17.3418V17.346Z" fill="white"/>
<path d="M28.79 63.3801C28.7021 63.3801 28.6309 63.3089 28.6309 63.221V53.7504C28.6309 53.6625 28.7021 53.5913 28.79 53.5913C28.8779 53.5913 28.9491 53.6625 28.9491 53.7504V63.221C28.9491 63.3089 28.8779 63.3801 28.79 63.3801Z" fill="white"/>
<path d="M77.8379 22.3533V27.3775C77.3564 27.6161 76.7745 27.8046 76.0878 27.9427C75.4012 28.0809 74.7062 28.1521 73.9944 28.1521C72.9059 28.1521 71.9596 27.9385 71.1599 27.5073C70.3603 27.076 69.749 26.4564 69.3219 25.6483C68.8949 24.8403 68.6855 23.8815 68.6855 22.772C68.6855 21.6625 68.8991 20.7205 69.3219 19.9124C69.7448 19.1044 70.3519 18.4847 71.139 18.0535C71.922 17.6222 72.8472 17.4087 73.9065 17.4087C74.6476 17.4087 75.3426 17.5134 75.9915 17.7269C76.6405 17.9404 77.1806 18.2461 77.6118 18.6396L76.9671 20.0213C76.4772 19.6444 75.9957 19.3765 75.5184 19.2132C75.0453 19.0499 74.522 18.9662 73.9526 18.9662C72.864 18.9662 72.0392 19.2844 71.4823 19.925C70.9255 20.5656 70.6492 21.5118 70.6492 22.772C70.6492 25.3469 71.788 26.6364 74.0698 26.6364C74.7481 26.6364 75.4305 26.5443 76.1088 26.3559V23.7266H73.827V22.3575H77.8337L77.8379 22.3533Z" fill="white"/>
<path d="M84.6792 22.1147L83.5823 22.2194C82.343 22.3492 81.7234 22.973 81.7234 24.0909V28.0139H79.8477V20.7456H81.6312V22.0226C82.0122 21.1517 82.7952 20.6744 83.9884 20.5949L84.5578 20.5488L84.6792 22.1105V22.1147Z" fill="white"/>
<path d="M91.8803 24.7148H86.8854C86.9441 25.3888 87.1492 25.8871 87.5009 26.2178C87.8526 26.5444 88.3508 26.7077 88.9998 26.7077C89.812 26.7077 90.5489 26.4523 91.2188 25.9331L91.7589 27.2101C91.4198 27.4864 90.9927 27.7125 90.4777 27.88C89.9628 28.0475 89.4436 28.1312 88.9244 28.1312C87.7228 28.1312 86.7766 27.7963 86.0816 27.1222C85.3866 26.4481 85.0391 25.527 85.0391 24.3589C85.0391 23.6178 85.1898 22.9563 85.487 22.3827C85.7885 21.8091 86.2114 21.3611 86.7557 21.0471C87.2999 20.7289 87.9196 20.5698 88.6104 20.5698C89.6194 20.5698 90.4191 20.8922 91.0053 21.537C91.5914 22.1817 91.8845 23.0694 91.8845 24.1956V24.7148H91.8803ZM87.4465 22.3534C87.1408 22.6716 86.9524 23.128 86.8854 23.7225H90.2768C90.2558 23.1196 90.1051 22.659 89.8246 22.3492C89.5441 22.0352 89.1547 21.8803 88.6523 21.8803C88.1499 21.8803 87.7479 22.0394 87.4465 22.3576V22.3534Z" fill="white"/>
<path d="M99.8472 24.7148H94.8523C94.9109 25.3888 95.1161 25.8871 95.4678 26.2178C95.8195 26.5444 96.3177 26.7077 96.9667 26.7077C97.7747 26.7077 98.5158 26.4523 99.1857 25.9331L99.7258 27.2101C99.3866 27.4864 98.9596 27.7125 98.4446 27.88C97.9296 28.0475 97.4105 28.1312 96.8913 28.1312C95.6897 28.1312 94.7435 27.7963 94.0485 27.1222C93.3534 26.4481 93.0059 25.527 93.0059 24.3589C93.0059 23.6178 93.1567 22.9563 93.4581 22.3827C93.7596 21.8091 94.1824 21.3611 94.7267 21.0471C95.271 20.7289 95.8906 20.5698 96.5815 20.5698C97.5905 20.5698 98.3902 20.8922 98.9763 21.537C99.5625 22.1817 99.8556 23.0694 99.8556 24.1956V24.7148H99.8472ZM95.4134 22.3534C95.1077 22.6716 94.9193 23.128 94.8523 23.7225H98.2436C98.2227 23.1196 98.072 22.659 97.7956 22.3492C97.5151 22.0352 97.1258 21.8803 96.6233 21.8803C96.1209 21.8803 95.719 22.0394 95.4134 22.3576V22.3534Z" fill="white"/>
<path d="M107.607 21.3151C108.038 21.8091 108.251 22.5586 108.251 23.5592V28.0182H106.376V23.6639C106.376 23.0987 106.267 22.6883 106.053 22.4288C105.84 22.1734 105.501 22.0436 105.04 22.0436C104.5 22.0436 104.069 22.2111 103.742 22.5502C103.416 22.8893 103.257 23.3373 103.257 23.9025V28.0182H101.381V20.7499H103.211V21.8342C103.462 21.4281 103.797 21.1141 104.215 20.8964C104.634 20.6787 105.111 20.5698 105.639 20.5698C106.518 20.5698 107.175 20.8168 107.602 21.3109L107.607 21.3151Z" fill="white"/>
<path d="M115.691 27.8214C114.979 27.6037 114.38 27.2981 113.891 26.9003L114.535 25.5019C115.046 25.8871 115.582 26.1718 116.147 26.3476C116.713 26.5277 117.324 26.6156 117.985 26.6156C118.714 26.6156 119.279 26.49 119.673 26.2346C120.066 25.9834 120.267 25.6275 120.267 25.1712C120.267 24.7734 120.083 24.472 119.719 24.2626C119.354 24.0533 118.747 23.8565 117.897 23.6681C117.018 23.4797 116.302 23.262 115.754 23.0149C115.205 22.7679 114.787 22.4497 114.51 22.0645C114.23 21.6794 114.092 21.1895 114.092 20.595C114.092 20.0004 114.263 19.431 114.602 18.9454C114.942 18.4597 115.423 18.0829 116.043 17.8065C116.662 17.5344 117.378 17.3962 118.186 17.3962C118.927 17.3962 119.631 17.5093 120.301 17.7312C120.971 17.9531 121.519 18.2587 121.95 18.6439L121.305 20.0423C120.363 19.3012 119.325 18.9286 118.186 18.9286C117.508 18.9286 116.968 19.0668 116.574 19.3389C116.181 19.6111 115.98 19.9921 115.98 20.4777C115.98 20.8839 116.156 21.1979 116.503 21.4156C116.855 21.6333 117.449 21.8384 118.287 22.0269C119.179 22.2236 119.899 22.4455 120.456 22.6884C121.012 22.9312 121.435 23.241 121.733 23.6178C122.026 23.9947 122.176 24.472 122.176 25.0455C122.176 25.6694 122.009 26.2179 121.674 26.6868C121.339 27.1557 120.853 27.52 120.217 27.7712C119.581 28.0224 118.835 28.1522 117.973 28.1522C117.161 28.1522 116.403 28.0433 115.691 27.8256V27.8214Z" fill="white"/>
<path d="M125.166 27.6748C124.601 27.3692 124.161 26.9254 123.851 26.3518C123.542 25.7782 123.387 25.1083 123.387 24.3463C123.387 23.5843 123.542 22.9186 123.851 22.3492C124.161 21.7798 124.601 21.3402 125.166 21.0345C125.731 20.7289 126.389 20.574 127.138 20.574C127.888 20.574 128.545 20.7289 129.11 21.0345C129.675 21.3402 130.111 21.7798 130.416 22.3492C130.722 22.9186 130.873 23.5843 130.873 24.3463C130.873 25.1083 130.722 25.7782 130.416 26.3518C130.111 26.9254 129.675 27.3692 129.11 27.6748C128.545 27.9805 127.888 28.1354 127.138 28.1354C126.389 28.1354 125.731 27.9805 125.166 27.6748ZM128.52 26.1006C128.838 25.7028 129.001 25.1209 129.001 24.3463C129.001 23.5717 128.842 23.0023 128.52 22.6004C128.197 22.1985 127.741 21.9975 127.138 21.9975C126.535 21.9975 126.075 22.1985 125.748 22.6004C125.422 23.0023 125.262 23.5843 125.262 24.3463C125.262 25.1083 125.421 25.7028 125.744 26.1006C126.062 26.4983 126.523 26.6951 127.126 26.6951C127.728 26.6951 128.202 26.4983 128.52 26.1006Z" fill="white"/>
<path d="M134.761 20.7499H136.696V22.1483H134.761V28.0182H132.886V22.1483H131.475V20.7499H132.886C132.886 19.7116 133.158 18.9286 133.702 18.4011C134.246 17.8777 135.096 17.5847 136.243 17.526L136.98 17.48L137.102 18.8616L136.398 18.8909C135.808 18.9202 135.389 19.05 135.138 19.2845C134.887 19.519 134.761 19.8916 134.761 20.4066V20.7499Z" fill="white"/>
<path d="M141.782 26.6951L141.694 28.0767C141.392 28.1061 141.12 28.1228 140.869 28.1228C139.839 28.1228 139.077 27.8883 138.587 27.4152C138.097 26.9463 137.85 26.2429 137.85 25.3134V22.1482H136.439V20.7498H137.85V18.5811H139.726V20.7498H141.66V22.1482H139.726V25.2841C139.726 26.2555 140.182 26.7412 141.091 26.7412C141.313 26.7412 141.539 26.7244 141.782 26.6951Z" fill="white"/>
<path d="M154.734 20.7498L151.854 28.0181H150.217L148.416 23.3372L146.662 28.0181H145.042L142.145 20.7498H144.066L145.942 25.8032L147.818 20.7498H149.166L151.042 25.8325L152.9 20.7498H154.73H154.734Z" fill="white"/>
<path d="M161.185 21.3151C161.683 21.8091 161.934 22.5753 161.934 23.6053V28.0182H160.151V26.9045C159.979 27.2897 159.711 27.5911 159.347 27.813C158.983 28.0307 158.56 28.1396 158.078 28.1396C157.597 28.1396 157.145 28.0391 156.743 27.8423C156.341 27.6455 156.027 27.3734 155.796 27.0259C155.566 26.6784 155.453 26.2932 155.453 25.8661C155.453 25.3302 155.591 24.9115 155.868 24.6017C156.144 24.2961 156.592 24.07 157.212 23.9318C157.831 23.7937 158.685 23.7225 159.778 23.7225H160.155V23.3792C160.155 22.8851 160.046 22.5293 159.833 22.3074C159.619 22.0896 159.259 21.9808 158.761 21.9808C158.371 21.9808 157.961 22.0478 157.538 22.1817C157.111 22.3157 156.697 22.4999 156.286 22.7386L155.763 21.4616C156.173 21.2062 156.667 20.9927 157.249 20.821C157.827 20.6536 158.38 20.5698 158.899 20.5698C159.929 20.5698 160.695 20.8168 161.193 21.3109L161.185 21.3151ZM159.678 26.3016C159.992 25.9708 160.151 25.5396 160.151 25.0162V24.7022H159.879C159.209 24.7022 158.69 24.7315 158.317 24.7901C157.948 24.8487 157.681 24.9534 157.521 25.1041C157.362 25.2507 157.283 25.4558 157.283 25.7154C157.283 26.0336 157.392 26.2932 157.614 26.4942C157.831 26.6993 158.112 26.7998 158.455 26.7998C158.953 26.7998 159.364 26.6323 159.678 26.3016Z" fill="white"/>
<path d="M168.671 22.1147L167.574 22.2194C166.335 22.3492 165.716 22.973 165.716 24.0909V28.0139H163.84V20.7456H165.623V22.0226C166.004 21.1517 166.787 20.6744 167.981 20.5949L168.55 20.5488L168.671 22.1105V22.1147Z" fill="white"/>
<path d="M175.873 24.7148H170.878C170.936 25.3888 171.141 25.8871 171.493 26.2178C171.845 26.5444 172.343 26.7077 172.992 26.7077C173.8 26.7077 174.541 26.4523 175.211 25.9331L175.751 27.2101C175.412 27.4864 174.985 27.7125 174.47 27.88C173.955 28.0475 173.436 28.1312 172.917 28.1312C171.715 28.1312 170.769 27.7963 170.074 27.1222C169.379 26.4481 169.031 25.527 169.031 24.3589C169.031 23.6178 169.182 22.9563 169.483 22.3827C169.785 21.8091 170.208 21.3611 170.752 21.0471C171.296 20.7289 171.916 20.5698 172.607 20.5698C173.616 20.5698 174.415 20.8922 175.002 21.537C175.588 22.1817 175.881 23.0694 175.881 24.1956V24.7148H175.873ZM171.439 22.3534C171.133 22.6716 170.945 23.128 170.878 23.7225H174.269C174.248 23.1196 174.097 22.659 173.817 22.3492C173.536 22.0352 173.147 21.8803 172.644 21.8803C172.142 21.8803 171.74 22.0394 171.439 22.3576V22.3534Z" fill="white"/>
<path d="M71.541 45.1004C70.6199 44.619 69.9123 43.9449 69.4224 43.0698C68.9326 42.1948 68.6855 41.1816 68.6855 40.0302C68.6855 38.8788 68.9326 37.8698 69.4224 36.999C69.9123 36.1281 70.6199 35.454 71.541 34.9767C72.462 34.4952 73.5422 34.2566 74.7857 34.2566C75.5645 34.2566 76.3181 34.3696 77.0466 34.5915C77.7751 34.8134 78.3696 35.1149 78.8344 35.4875L77.8672 37.5684C76.8833 36.9194 75.8785 36.5928 74.8485 36.5928C73.8772 36.5928 73.1319 36.8817 72.6211 37.4553C72.1062 38.0289 71.8508 38.8872 71.8508 40.0302C71.8508 41.1732 72.1062 42.0315 72.6211 42.6135C73.1361 43.1954 73.8772 43.4843 74.8485 43.4843C75.8785 43.4843 76.8833 43.1578 77.8672 42.5088L78.8344 44.5855C78.3696 44.9581 77.7751 45.2554 77.0466 45.4814C76.3181 45.7033 75.5645 45.8164 74.7857 45.8164C73.5422 45.8164 72.462 45.5777 71.541 45.0963V45.1004Z" fill="white"/>
<path d="M92.0858 34.3989V45.674H89.0336V41.1188H84.1518V45.674H81.0996V34.3989H84.1518V38.7783H89.0336V34.3989H92.0858Z" fill="white"/>
<path d="M102.913 43.3378H97.6255L96.5578 45.674H93.4219L98.9987 34.3989H101.473L107.067 45.674H103.981L102.913 43.3378ZM101.913 41.1313L100.267 37.5181L98.6219 41.1313H101.909H101.913Z" fill="white"/>
<path d="M120.469 34.3989V45.674H117.756V39.758L115.449 43.8025H113.448L111.158 39.8543L111.141 45.674H108.428V34.3989H110.885L114.478 40.8131L118.053 34.3989H120.461H120.469Z" fill="white"/>
<path d="M123.289 34.399H129.071C130.394 34.399 131.42 34.7172 132.157 35.3494C132.889 35.9858 133.258 36.865 133.258 37.9954C133.258 39.1259 132.889 39.9925 132.148 40.6331C131.407 41.2737 130.382 41.5919 129.071 41.5919H126.408V45.6699H123.289V34.3948V34.399ZM128.644 39.3896C129.222 39.3896 129.649 39.2766 129.925 39.0547C130.201 38.8328 130.34 38.4853 130.34 38.0164C130.34 37.5474 130.201 37.1999 129.925 36.9697C129.649 36.7394 129.222 36.6263 128.644 36.6263H126.408V39.3938H128.644V39.3896Z" fill="white"/>
<path d="M134.766 34.3989H137.885V45.674H134.766V34.3989Z" fill="white"/>
<path d="M142.559 45.1046C141.659 44.6315 140.968 43.9574 140.482 43.0907C139.997 42.2199 139.754 41.2025 139.754 40.0302C139.754 38.8579 139.997 37.8363 140.482 36.9696C140.968 36.0988 141.659 35.4331 142.559 34.9641C143.459 34.4952 144.519 34.2607 145.737 34.2607C146.955 34.2607 148.019 34.4952 148.915 34.9641C149.815 35.4331 150.501 36.1029 150.983 36.9696C151.464 37.8405 151.703 38.8579 151.703 40.0302C151.703 41.2025 151.46 42.2241 150.975 43.0907C150.489 43.9616 149.798 44.6315 148.898 45.1046C147.998 45.5777 146.947 45.8163 145.737 45.8163C144.527 45.8163 143.455 45.5777 142.559 45.1046ZM147.855 42.6595C148.362 42.0566 148.617 41.1815 148.617 40.0302C148.617 38.8788 148.362 38.0038 147.847 37.4092C147.332 36.8105 146.629 36.5132 145.737 36.5132C144.845 36.5132 144.125 36.8105 143.618 37.4009C143.112 37.9912 142.856 38.8704 142.856 40.0302C142.856 41.1899 143.112 42.0733 143.618 42.6679C144.125 43.2666 144.833 43.5638 145.737 43.5638C146.641 43.5638 147.349 43.2624 147.855 42.6595Z" fill="white"/>
<path d="M164.213 34.3989V45.674H161.906L156.446 39.2305V45.674H153.549V34.3989H155.822L161.299 40.8424V34.3989H164.213Z" fill="white"/>
<path d="M168.06 45.4815C167.189 45.2596 166.482 44.9581 165.941 44.5855L166.909 42.5088C167.486 42.8522 168.102 43.1117 168.755 43.2918C169.408 43.4718 170.07 43.5639 170.739 43.5639C171.409 43.5639 171.933 43.476 172.289 43.3001C172.644 43.1243 172.825 42.8773 172.825 42.5549C172.825 42.266 172.665 42.0315 172.343 41.8515C172.021 41.6715 171.409 41.4873 170.505 41.3072C169.387 41.0853 168.512 40.8174 167.876 40.5075C167.244 40.1977 166.8 39.8377 166.544 39.419C166.289 39.0045 166.163 38.4895 166.163 37.8824C166.163 37.1916 166.368 36.5678 166.783 36.0193C167.193 35.4708 167.775 35.0396 168.529 34.7256C169.278 34.4115 170.141 34.2524 171.112 34.2524C171.97 34.2524 172.804 34.3655 173.612 34.5958C174.42 34.826 175.048 35.1191 175.5 35.4834L174.549 37.5642C173.465 36.8608 172.322 36.5091 171.125 36.5091C170.547 36.5091 170.086 36.6138 169.735 36.819C169.383 37.0283 169.207 37.3004 169.207 37.6438C169.207 37.8447 169.27 38.0122 169.396 38.1378C169.521 38.2676 169.751 38.3932 170.091 38.5146C170.43 38.636 170.932 38.7616 171.598 38.8914C172.682 39.1133 173.536 39.3855 174.156 39.6995C174.776 40.0135 175.219 40.3777 175.479 40.7964C175.739 41.2109 175.868 41.7092 175.868 42.2827C175.868 43.3923 175.416 44.2589 174.512 44.8828C173.607 45.5066 172.335 45.8164 170.698 45.8164C169.806 45.8164 168.922 45.7034 168.052 45.4815H168.06Z" fill="white"/>
</g>
<defs>
<clipPath id="clip0_340_2069">
<rect width="176" height="64" fill="white"/>
</clipPath>
</defs>
</svg>
