<svg width="91" height="142" viewBox="0 0 91 142" fill="none" xmlns="http://www.w3.org/2000/svg">
<path opacity="0.3" d="M32.7822 3.02666C39.1021 -2.16295 48.6675 1.51646 49.8803 9.60358L54.4847 40.3054C54.9355 43.3117 56.6635 45.9766 59.2242 47.6148L85.3758 64.3449C92.2643 68.7518 91.7209 78.986 84.4044 82.6385L56.628 96.5049C53.9082 97.8627 51.9077 100.33 51.141 103.271L43.311 133.313C41.2485 141.226 31.3472 143.872 25.6125 138.042L3.84143 115.91C1.70962 113.743 -1.25465 112.603 -4.28925 112.782L-35.2801 114.619C-43.4433 115.103 -49.0192 106.504 -45.2469 99.2481L-30.9258 71.7034C-29.5235 69.0063 -29.3551 65.8347 -30.4638 63.0042L-41.7872 34.0978C-44.7699 26.4835 -38.3147 18.5233 -30.2486 19.8689L0.37344 24.9773C3.37192 25.4775 6.44029 24.6576 8.78962 22.7284L32.7822 3.02666Z" fill="url(#paint0_linear_38_3393)"/>
<defs>
<linearGradient id="paint0_linear_38_3393" x1="125.761" y1="21.494" x2="-81.8014" y2="136.649" gradientUnits="userSpaceOnUse">
<stop stop-color="#A1C145"/>
<stop offset="1" stop-color="#006D69"/>
</linearGradient>
</defs>
</svg>
