<svg width="98" height="142" viewBox="0 0 98 142" fill="none" xmlns="http://www.w3.org/2000/svg">
<path opacity="0.3" d="M45.5337 8.69319C47.3185 0.712788 57.1213 -2.27715 63.0562 3.34872L85.5871 24.7067C87.7933 26.7981 90.7956 27.8341 93.822 27.5483L124.73 24.6304C132.871 23.8618 138.744 32.2609 135.227 39.6437L121.877 67.6719C120.57 70.4163 120.512 73.5918 121.719 76.3819L134.046 104.875C137.292 112.381 131.119 120.561 123.011 119.498L92.2291 115.463C89.215 115.068 86.1772 115.994 83.8967 118.004L60.6069 138.532C54.4722 143.939 44.7841 140.596 43.2895 132.556L37.6155 102.034C37.0599 99.0453 35.24 96.4425 32.6236 94.8947L5.90358 79.0883C-1.1347 74.9247 -0.949059 64.6777 6.23542 60.7719L33.5105 45.9437C36.1812 44.4917 38.0943 41.9565 38.7578 38.9899L45.5337 8.69319Z" fill="url(#paint0_linear_38_3394)"/>
<defs>
<linearGradient id="paint0_linear_38_3394" x1="130.17" y1="-34.0001" x2="37.5118" y2="184.534" gradientUnits="userSpaceOnUse">
<stop stop-color="#A1C145"/>
<stop offset="1" stop-color="#006D69"/>
</linearGradient>
</defs>
</svg>
