<svg width="383" height="698" viewBox="0 0 383 698" fill="none" xmlns="http://www.w3.org/2000/svg">
<g opacity="0.5" clip-path="url(#clip0_36_1719)">
<path d="M-87.9482 500.776C-57.7726 498.612 -28.3774 483.625 -8.13754 460.544C12.1023 437.462 22.6067 406.199 20.7457 376.166C19.9909 364.964 17.6169 353.847 19.8727 342.719C21.8124 333.578 26.6598 325.327 30.3433 316.673C43.9721 285.363 42.2295 248.138 25.4587 219.466C4.40803 183.602 -47.983 156.801 -90.7344 168.896" stroke="#ADCB53" stroke-miterlimit="10"/>
<path d="M-34.2567 589.055C15.3517 586.103 61.5874 545.316 71.2314 496.136C75.9342 471.32 72.4057 445.662 77.571 420.822C83.3902 393.398 99.6761 369.133 109.681 342.88C126.799 297.943 124.372 246.615 103.226 204.73C82.081 162.844 42.581 131.426 -2.85479 120.02C-9.76466 122.237 -8.69287 124.151 -15.6537 123.126C-31.668 120.49 -48.7442 123.936 -62.961 132.563" stroke="#ADCB53" stroke-miterlimit="10"/>
<path d="M23.1652 664.744C55.2302 672.332 89.3517 648.753 105.084 618.723C120.816 588.693 122.704 554.174 124.265 520.947C125.562 492.95 122.629 461.002 129.957 433.847C136.958 407.983 154.169 383.67 165.128 359.221C196.219 290.14 202.104 208.012 168.435 142.564C134.766 77.1149 57.702 34.3411 -15.2914 51.7325" stroke="#ADCB53" stroke-miterlimit="10"/>
</g>
<defs>
<clipPath id="clip0_36_1719">
<rect width="506.782" height="479.979" fill="white" transform="translate(382.695 327.633) rotate(133.047)"/>
</clipPath>
</defs>
</svg>
