<svg width="321" height="836" viewBox="0 0 321 836" fill="none" xmlns="http://www.w3.org/2000/svg">
<g opacity="0.5" clip-path="url(#clip0_36_1634)">
<path d="M447.354 59.6494C422.789 53.0686 390.008 59.749 366.941 68.6374C334.017 81.37 303.165 109.223 293.846 143.406C282.366 185.915 258.493 198.904 226.139 225.577C200.816 246.512 179.731 272.355 166.024 302.244C114.798 414.38 148.829 530.493 226.335 619.718C252.103 649.378 280.145 676.923 306.593 706.066C326.466 728.005 363.354 757.449 361.377 789.159" stroke="#ADCB53" stroke-miterlimit="10"/>
<path d="M517.701 440.833C496.582 421.064 471.734 404.974 453.777 396.523C412.666 377.181 345.245 370.948 308.214 402.242C260.901 442.191 272.513 503.583 308.112 548.045C334.952 581.449 376.085 592.301 418.847 591.539C456.564 590.913 496.735 583.563 528.599 562.369C544.218 551.988 558.99 536.941 560.15 518.182C561.849 491.612 542.235 463.812 517.701 440.833Z" stroke="#ADCB53" stroke-miterlimit="10"/>
<path d="M408.128 639.605C459.009 643.591 519.715 635.327 563.741 608.313C581.672 597.259 604.557 576.446 605.855 553.521C611.923 441.823 490.582 316.543 380.964 313.554C320.463 311.907 258.324 338.05 231.786 395.308C211.749 438.463 210.155 490.611 230.431 533.709C261.155 599.082 335.978 633.943 408.128 639.605Z" stroke="#ADCB53" stroke-miterlimit="10"/>
</g>
<defs>
<clipPath id="clip0_36_1634">
<rect width="514.1" height="664.1" fill="white" transform="translate(353.387) rotate(32.1495)"/>
</clipPath>
</defs>
</svg>
