<svg width="166" height="186" viewBox="0 0 166 186" fill="none" xmlns="http://www.w3.org/2000/svg">
<path d="M97.1341 153.994C98.8944 152.53 99.9973 150.423 100.2 148.135C100.403 145.847 99.6892 143.566 98.2158 141.794C96.7424 140.022 94.63 138.904 92.3435 138.686C90.0569 138.469 87.7834 139.169 86.023 140.632L52.0304 168.899C48.8727 166.242 45.955 163.311 43.3117 160.141C41.0279 157.286 39.0443 154.204 37.3925 150.944L71.2124 122.821C72.8545 121.32 73.8518 119.24 73.9972 117.012C74.1426 114.785 73.4249 112.581 71.9932 110.859C70.5614 109.137 68.5256 108.03 66.3088 107.766C64.092 107.503 61.8646 108.104 60.0893 109.445L30.1712 134.323C27.504 127.103 24.9649 119.042 22.5593 110.526L45.2787 91.6337C47.039 90.1699 48.1419 88.0622 48.3447 85.7742C48.5476 83.4863 47.8338 81.2055 46.3604 79.4336C44.887 77.6617 42.7747 76.5438 40.4881 76.3259C38.2015 76.108 35.928 76.808 34.1677 78.2718L17.7113 91.9559C15.5896 83.5472 13.7271 74.9229 11.9734 66.5759L19.3449 60.4462C21.1052 58.9824 22.2082 56.8747 22.411 54.5867C22.6139 52.2988 21.9001 50.018 20.4267 48.2461C18.9533 46.4742 16.841 45.3563 14.5544 45.1384C12.2678 44.9205 9.99424 45.6204 8.23393 47.0842L8.08994 47.2039C3.04424 20.6355 0.0983559 0.165306 0.0983559 0.165306C0.0983559 0.165306 19.7022 6.78376 44.8901 16.6031L44.7461 16.7228C42.9858 18.1866 41.8829 20.2943 41.68 22.5823C41.4771 24.8703 42.1909 27.1511 43.6644 28.923C45.1378 30.6949 47.2501 31.8128 49.5367 32.0306C51.8233 32.2485 54.0968 31.5486 55.8571 30.0848L63.243 23.9431C71.1301 27.1899 79.2124 30.6422 87.1363 34.2262L70.6798 47.9104C68.9195 49.3742 67.8166 51.4819 67.6137 53.7698C67.4108 56.0578 68.1246 58.3386 69.5981 60.1105C71.0715 61.8824 73.1838 63.0003 75.4704 63.2182C77.757 63.436 80.0305 62.7361 81.7908 61.2723L104.525 42.3683C112.447 46.2724 119.922 50.2539 126.534 54.1933L96.6015 79.0834C94.9593 80.5844 93.962 82.6647 93.8166 84.8924C93.6712 87.12 94.389 89.3237 95.8207 91.0455C97.2525 92.7674 99.2883 93.875 101.505 94.1384C103.722 94.4018 105.949 93.8006 107.725 92.4599L141.559 64.3253C144.457 66.5513 147.125 69.0632 149.522 71.8228C152.157 75.0001 154.506 78.4034 156.542 81.9927L122.535 110.271C120.775 111.735 119.672 113.842 119.469 116.13C119.266 118.418 119.98 120.699 121.453 122.471C122.927 124.243 125.039 125.361 127.326 125.579C129.612 125.797 131.886 125.097 133.646 123.633L163.42 98.8745C166.738 111.61 166.379 125.004 162.386 137.496C158.392 149.988 150.928 161.063 140.863 169.433C130.798 177.802 118.547 183.121 105.536 184.768C92.5254 186.416 79.2909 184.326 67.3743 178.741L97.1341 153.994Z" fill="#AECC53"/>
</svg>
